<svg xmlns="http://www.w3.org/2000/svg"><style>:root svg:not(:target){display:none}</style><svg viewBox="0 0 28 28" fill="none" id="burger-close"><rect width="35.207" height="2.994" rx="1.497" transform="matrix(.69604 .718 -.69604 .718 3.084 1)" fill="#0F805D" fill-opacity=".75"></rect><rect width="35.207" height="2.994" rx="1.497" transform="matrix(.69604 -.718 .69604 .718 .379 26.164)" fill="#0F805D" fill-opacity=".75"></rect></svg><svg viewBox="0 0 60 60" fill="none" id="burger-open"><path d="M50.13 27.5h-40.26a2.37 2.37 0 0 0-2.37 2.38v.25a2.37 2.37 0 0 0 2.38 2.37h40.24a2.37 2.37 0 0 0 2.38-2.38v-.25a2.37 2.37 0 0 0-2.38-2.37Zm0 12.5h-40.26a2.37 2.37 0 0 0-2.37 2.38v.24a2.37 2.37 0 0 0 2.38 2.38h40.24a2.37 2.37 0 0 0 2.38-2.38v-.24a2.37 2.37 0 0 0-2.38-2.38Zm0-25h-40.26a2.37 2.37 0 0 0-2.37 2.38v.25a2.37 2.37 0 0 0 2.38 2.37h40.24a2.37 2.37 0 0 0 2.38-2.38v-.25a2.37 2.37 0 0 0-2.38-2.37Z" fill="#0F805D"></path></svg><svg viewBox="0 0 14 11" fill="none" id="checked"><path d="m5 11-5-5.2 1.59-1.61 3.41 3.51 7.41-7.7 1.59 1.66-9 9.34Z" fill="#0F805D"></path></svg><svg viewBox="0 0 32 32" fill="none" id="delivery"><path d="M25.33 9.33c0-1.46-1.2-2.66-2.66-2.66h-4v2.66h4v3.54l-4.64 5.8h-4.7v-6.67h-5.33a5.33 5.33 0 0 0-5.33 5.33v4h2.66a4 4 0 1 0 8 0h5.98l6.02-7.53v-4.47Zm-20 9.34v-1.34c0-1.46 1.2-2.66 2.67-2.66h2.67v4h-5.34Zm4 4c-.73 0-1.33-.6-1.33-1.34h2.67c0 .74-.6 1.34-1.34 1.34Z" fill="#0F805D"></path><path d="M6.67 8h6.66v2.67h-6.66v-2.67Zm18.66 9.33a4 4 0 1 0 0 8 4 4 0 0 0 0-8Zm0 5.34a1.34 1.34 0 0 1 0-2.67 1.34 1.34 0 1 1 0 2.67Z" fill="#0F805D"></path></svg><svg viewBox="0 0 153 32" fill="none" id="developer"><path d="M10.38 10.14v11.36h-1.1v-5.31h-6.74v5.31h-1.12v-11.36h1.12v5.06h6.74v-5.06h1.1Zm10.92 1h-4.05v10.36h-1.12v-10.37h-4.05v-.99h9.22v1Zm11.77 10.36v-9.25l-4.12 7.19h-.7l-4.13-7.19v9.25h-1.12v-11.36h1.15l4.44 7.78 4.46-7.78h1.14v11.36h-1.12Zm3.96 0v-11.36h1.12v10.37h6.56v.99h-7.68Zm15.96-11.36h.94l4.72 11.36h-1.18l-1.47-3.55h-5.1l-1.46 3.55h-1.2l4.75-11.36Zm2.75 6.93-2.29-5.62-2.32 5.62h4.61Zm7.7 4.59c-.6 0-1.17-.11-1.68-.34a4.36 4.36 0 0 1-2.51-4.01c0-.8.17-1.51.53-2.16a4.04 4.04 0 0 1 3.64-2.13c.78 0 1.47.18 2.07.54.6.36 1.04.84 1.33 1.44l-1.06.34a2.47 2.47 0 0 0-1-1 2.69 2.69 0 0 0-1.38-.36 2.8 2.8 0 0 0-1.52.43 3.2 3.2 0 0 0-1.1 1.19c-.27.5-.4 1.07-.4 1.7a3.54 3.54 0 0 0 1.51 2.95 2.86 2.86 0 0 0 2.56.26c.34-.13.64-.3.88-.51.26-.23.43-.47.52-.72l1.07.32c-.15.4-.4.75-.76 1.07a3.86 3.86 0 0 1-2.7.99Zm4.5-2.56c0-.52.14-.97.44-1.34.3-.39.71-.68 1.23-.88a4.93 4.93 0 0 1 1.84-.32 8.03 8.03 0 0 1 2.44.38v-.7c0-.7-.21-1.27-.63-1.68a2.31 2.31 0 0 0-1.73-.63c-.44 0-.89.09-1.32.26-.43.16-.88.4-1.35.72l-.41-.77a6.77 6.77 0 0 1 1.6-.83 4.6 4.6 0 0 1 1.6-.29c1.02 0 1.83.3 2.43.88.6.59.9 1.4.9 2.43v3.86c0 .15.03.26.09.33s.17.1.3.12v.86l-.3.03a.56.56 0 0 1-.2 0 .8.8 0 0 1-.6-.25.85.85 0 0 1-.22-.52l-.02-.6c-.37.48-.86.85-1.46 1.12-.6.25-1.2.38-1.82.38-.53 0-1.02-.11-1.46-.34a2.73 2.73 0 0 1-1-.92c-.24-.4-.36-.83-.36-1.3Zm5.58.64c.12-.15.2-.3.27-.43a.9.9 0 0 0 .1-.37v-1.22a6.62 6.62 0 0 0-2.3-.43c-.79 0-1.42.16-1.9.47-.48.3-.72.73-.72 1.26a1.73 1.73 0 0 0 .95 1.55c.3.17.67.26 1.09.26.52 0 1-.1 1.45-.3.46-.2.81-.47 1.06-.79Zm3.25-2.38c0-.8.16-1.51.48-2.16a4.1 4.1 0 0 1 1.36-1.59 3.4 3.4 0 0 1 1.96-.59c.7 0 1.32.19 1.86.56.55.36.99.8 1.3 1.33v-5.09h1.08v10.37c0 .15.03.26.1.33.06.07.16.1.29.12v.86c-.22.03-.38.04-.5.03a.88.88 0 0 1-.6-.27.78.78 0 0 1-.25-.56v-.82c-.33.55-.78.98-1.34 1.3a3.66 3.66 0 0 1-4.62-.83c-.36-.4-.63-.87-.84-1.38a4.65 4.65 0 0 1-.28-1.61Zm6.95 1.28v-2.58a3.48 3.48 0 0 0-2.88-2.08 2.84 2.84 0 0 0-2.15 1.04 3.83 3.83 0 0 0-.58 3.62c.16.4.38.76.67 1.08a3.08 3.08 0 0 0 2.2.98c.29 0 .57-.05.87-.16a3.14 3.14 0 0 0 1.54-1.1c.18-.26.3-.53.33-.8Zm7.16 3.02a4.1 4.1 0 0 1-3-1.28 4.6 4.6 0 0 1-.87-1.4 4.6 4.6 0 0 1 .22-3.82 4.16 4.16 0 0 1 5.78-1.55 4.31 4.31 0 0 1 1.98 3.68v.26c0 .07 0 .13-.02.17h-7.13a3.41 3.41 0 0 0 1.6 2.7 3.02 3.02 0 0 0 3.02-.02c.5-.27.83-.63 1.03-1.08l.94.26c-.17.4-.43.75-.78 1.07-.36.32-.77.57-1.25.75-.47.17-.98.26-1.52.26Zm-3.07-4.72h6.16a3.4 3.4 0 0 0-.5-1.6 2.96 2.96 0 0 0-1.1-1.07c-.45-.27-.95-.4-1.5-.4a3.08 3.08 0 0 0-2.6 1.49 3.5 3.5 0 0 0-.46 1.58Zm21.26 4.56h-1.09v-4.66a3.9 3.9 0 0 0-.46-2.14 1.55 1.55 0 0 0-1.38-.69c-.63 0-1.2.23-1.7.67a3.65 3.65 0 0 0-1.03 1.73v5.09h-1.1v-4.66c0-.98-.14-1.7-.44-2.14-.3-.46-.76-.69-1.38-.69a2.5 2.5 0 0 0-1.68.66 3.5 3.5 0 0 0-1.05 1.73v5.1h-1.1v-8.34h1v1.9c.35-.66.8-1.16 1.34-1.51a3.36 3.36 0 0 1 1.84-.53c.7 0 1.26.2 1.69.6.42.39.68.9.78 1.54.38-.7.84-1.23 1.38-1.6a3.24 3.24 0 0 1 3.02-.28c.33.17.6.41.78.73.2.31.35.69.44 1.14.1.44.14.93.14 1.47v4.88Zm2.61 2.56a6.03 6.03 0 0 0 .74 0c.12-.02.25-.1.36-.22.12-.13.26-.38.42-.74l.67-1.6-3.63-8.34h1.15l3.06 7.22 2.81-7.22h1.1l-4.33 10.76a1.8 1.8 0 0 1-.9.97c-.2.1-.47.17-.8.18h-.3l-.35-.03v-.98Zm28.47-24.06h-.1l-13.05 1.31v23.18l13.05 7.51 12.95-7.5v-23.19l-12.85-1.31Zm11.01 11.35-11.11-6.38v-.09h-.1l-.1-.1v.1l-11.01 6.47v-8.44l11.11-1.13 11.21 1.13v8.44Zm-11.2-4.97 11.1 6.29-4.34 2.44-6.87-3.94v1.31l5.7 3.29-.86.46-4.84-2.81v1.31l3.68 2.16-.78.47-2.9-1.69v1.32l1.84 1.03-1.74 1.03-11.02-6.29 11.02-6.38Zm-11.12 7.79 11.01 6.38v.94l-7.63-4.41v1.31l7.73 4.5v1.04l-7.73-4.41v1.31l7.73 4.5 7.83-4.6v-4.87l3.29-1.88v9.39l-11.12 6.47-11.11-6.38v-9.29Z" fill="#000"></path></svg><svg viewBox="0 0 32 32" fill="none" id="email-icon"><path d="M23.88 9h-15.75c-.3 0-.59.12-.8.34a1.2 1.2 0 0 0-.33.83v11.66c0 .31.12.61.33.83.21.22.5.34.8.34h15.74c.3 0 .59-.12.8-.34.21-.22.33-.52.33-.83v-11.66c0-.31-.12-.61-.33-.83a1.1 1.1 0 0 0-.8-.34Zm-.87 12.83h-13.95l3.94-4.22-.81-.81-4.06 4.36v-10.1l6.99 7.2a1.1 1.1 0 0 0 1.58 0l7.18-7.39v10.21l-4.14-4.3-.8.83 4.07 4.22Zm-14.15-11.66h14.1l-7.05 7.27-7.05-7.27Z" fill="#000"></path></svg><svg viewBox="0 0 32 32" fill="none" id="frost"><path d="M16 28a.92.92 0 0 1-.6-.22.7.7 0 0 1-.25-.53v-1.94l-1.11.97a.92.92 0 0 1-.6.22.92.92 0 0 1-.62-.22.7.7 0 0 1-.25-.53c0-.2.1-.39.26-.53l2.32-2.03v-5.9l-5.84 2.95-.85 2.78c-.06.2-.2.35-.4.45-.2.1-.43.13-.65.08a.85.85 0 0 1-.52-.35.67.67 0 0 1-.08-.57l.4-1.32-1.92.96c-.2.1-.43.13-.65.08a.85.85 0 0 1-.52-.35.67.67 0 0 1-.08-.57c.06-.2.2-.35.4-.45l1.92-.97-1.52-.36a.91.91 0 0 1-.3-.13.8.8 0 0 1-.22-.22.66.66 0 0 1-.08-.57c.02-.1.07-.18.14-.26a.83.83 0 0 1 .25-.2.94.94 0 0 1 .65-.07l3.17.74 5.84-2.94-5.83-2.94-3.18.74a.97.97 0 0 1-.64-.08.77.77 0 0 1-.4-.46.67.67 0 0 1 .09-.56c.11-.17.3-.3.51-.35l1.52-.36-1.93-.97a.84.84 0 0 1-.25-.19.72.72 0 0 1-.15-.26.66.66 0 0 1 .08-.57.8.8 0 0 1 .23-.22.98.98 0 0 1 .95-.05l1.92.96-.4-1.32a.66.66 0 0 1 .07-.58.79.79 0 0 1 .23-.22.98.98 0 0 1 .96-.05c.1.05.18.12.25.2a.6.6 0 0 1 .14.26l.85 2.78 5.84 2.94v-5.89l-2.32-2.03a.75.75 0 0 1-.2-.24.67.67 0 0 1 0-.58.76.76 0 0 1 .2-.24.87.87 0 0 1 .27-.16.97.97 0 0 1 .94.16l1.1.97v-1.94c0-.2.1-.39.26-.53a.92.92 0 0 1 .6-.22c.23 0 .45.08.61.22a.7.7 0 0 1 .25.53v1.94l1.11-.97a.92.92 0 0 1 .6-.22c.24 0 .45.08.62.22a.7.7 0 0 1 .25.53c0 .2-.1.39-.26.53l-2.32 2.03v5.9l5.83-2.95.85-2.78c.06-.2.2-.35.4-.45a1 1 0 0 1 .66-.08c.22.05.4.18.52.35.11.17.14.38.08.57l-.4 1.32 1.92-.96a.92.92 0 0 1 1.17.27c.1.17.14.38.08.57-.06.2-.2.35-.4.45l-1.92.97 1.52.36c.22.05.4.18.52.35.11.17.14.38.09.57-.06.2-.2.35-.4.45a1 1 0 0 1-.66.08l-3.17-.74-5.83 2.94 5.83 2.94 3.17-.74a.97.97 0 0 1 .65.08c.2.1.35.26.4.45.06.2.03.4-.08.57-.12.17-.3.3-.52.35l-1.52.36 1.92.97c.2.1.34.26.4.45.06.2.03.4-.09.57-.11.17-.3.3-.51.35a.97.97 0 0 1-.65-.08l-1.92-.96.4 1.32a.66.66 0 0 1-.08.58.79.79 0 0 1-.22.22.98.98 0 0 1-.96.05.83.83 0 0 1-.25-.2.71.71 0 0 1-.15-.26l-.85-2.78-5.83-2.94v5.89l2.32 2.03a.7.7 0 0 1 .25.53.7.7 0 0 1-.25.53.92.92 0 0 1-.6.22.92.92 0 0 1-.61-.22l-1.11-.97v1.94a.7.7 0 0 1-.25.53.92.92 0 0 1-.6.22Z" fill="#0F805D"></path></svg><svg viewBox="0 0 32 32" fill="none" id="icon-call"><path d="m12.56 6.5-.86.26a4.2 4.2 0 0 0-2.94 3.43c-.36 2.48.44 5.38 2.36 8.7 1.92 3.33 4.02 5.47 6.35 6.4a4.2 4.2 0 0 0 4.45-.84l.66-.62a2.4 2.4 0 0 0 .3-3.15l-1.64-2.25a1.8 1.8 0 0 0-1.98-.67l-2.46.75-.07.01c-.27.04-.9-.54-1.67-1.9-.82-1.4-.99-2.24-.76-2.45l1.25-1.17a3 3 0 0 0 .69-3.42l-.8-1.76a2.4 2.4 0 0 0-2.88-1.32Zm1.79 1.81.8 1.77a1.8 1.8 0 0 1-.42 2.05l-1.26 1.17c-.8.76-.53 2.06.55 3.93 1.01 1.75 1.94 2.62 2.94 2.47l.14-.03 2.51-.76a.6.6 0 0 1 .66.22l1.63 2.25a1.2 1.2 0 0 1-.15 1.58l-.65.62a3 3 0 0 1-3.18.6c-2.04-.82-3.97-2.77-5.76-5.88-1.8-3.11-2.53-5.76-2.21-7.94a3 3 0 0 1 2.1-2.45l.86-.26a1.2 1.2 0 0 1 1.44.66Z" fill="#000"></path></svg><svg viewBox="0 0 32 32" fill="none" id="leaf-icon"><path d="M21.49 9.98a14.2 14.2 0 0 0-5.11-5.07l-.38-.22-.38.22a14.11 14.11 0 0 0-7.05 12.72c.08 2.2.92 4.04 2.43 5.34 1.16 1 2.65 1.6 4.25 1.75v2.59h1.5v-12h-1.5v7.9a5.63 5.63 0 0 1-5.18-5.64v-.43a12.67 12.67 0 0 1 5.93-10.7 12.67 12.67 0 0 1 5.93 11.13 5.54 5.54 0 0 1-3.68 5.28v1.59a7.32 7.32 0 0 0 2.75-1.47 7.14 7.14 0 0 0 2.43-5.83c0-2.52-.67-5-1.94-7.16Z" fill="#000"></path></svg><svg viewBox="0 0 96 40" fill="none" id="leaf-post"><path d="M80.11 18a48.31 48.31 0 0 1-2.16-3.38c-.9-1.57-2.74-7-.22-8.34-.56 2.32 1.87 5.75 2.64 7.77.95 2.48 1.93 5.68 3.39 8.23a22.79 22.79 0 0 1-3.65-4.28Zm4.18-2.1c.22 2.04.5 4.07.82 6.09-.86-2.08-2-4.13-2.86-6.14-1.38-3.23-2.35-6.62-3.74-9.84l.08-.01c4.16-.55 5.42 7.21 5.7 9.9Zm.37 20.84c-.48 1.03-1.91 1.17-2.5.13-.41-.72.26-1.88.74-2.39a.94.94 0 0 1 .2-.16c.13.06.31.03.38-.11v-.02c.37.05.65.6 1.2.88.1.04.19.07.28.07.02.56-.08 1.12-.3 1.6Zm-9.32-4.3c-.67 1.92-1.5 4.1-2.94 5.56-.48.48-.9.46-1.28.22.46-2.63 1.08-4.8 2.3-7.27.73-1.47 1.63-2.92 2.3-4.44l.52-.38c-.12 2.23-.14 4.12-.9 6.31Zm-4.55-.71a16.5 16.5 0 0 1 3.06-3.64c-.68 1.33-1.31 2.68-1.94 3.99a20.15 20.15 0 0 0-1.82 4.92l-.07-.12c-.97-1.67-.1-3.68.77-5.15Zm-14.9-14.5a35.28 35.28 0 0 1-2.42-3.44c-.5-.82-.67-1.77-1.25-2.53-.1-.12-.25-.1-.35 0-.06-1.57.14-3.3.37-4.78a4.26 4.26 0 0 1 1.25-2.64c.97 5.67 2.5 11.33 5.35 16.32a17.85 17.85 0 0 1-2.95-2.92Zm3.08-10.26c.96 4.21-.9 8.53.32 12.56-1.05-2.46-2.13-4.9-3.02-7.45-.98-2.81-1-5.91-2.14-8.65 1.77-.8 4.18.6 4.84 3.54Zm-4.68 24.53c-.03-1.02 1.01-1.67 1.87-1.85 1.07-.23 1.14.85 1.2 1.76 0 .06.03.13.07.18-.78 1.23-3.1 1.65-3.14-.1Zm-7.1-6.79c-1.81 2.51-2.76 5.53-5 7.73-1 .97-1.98 1.18-2.79.91 1.77-5.15 5.74-8.92 10.37-11.31-.94.7-1.77 1.55-2.58 2.67Zm-9.5 4.86c.33-1.63 1.34-2.9 2.48-4.03 1.97-1.97 4.34-2.9 6.83-3.54-1.05.71-2.02 1.59-2.75 2.23a21.38 21.38 0 0 0-5.96 8.32 3.65 3.65 0 0 1-.6-2.98Zm-11.11-24.27c-.5-1.38-.1-2.41 1.17-3.09 1.54 4.4 3.35 8.87 5.9 12.78-3.18-2.5-5.83-5.74-7.07-9.7Zm2.74-3.65c.95.35 1.77.9 2.46 1.64 1.8 1.68 2.06 4.35 2.2 6.67.1 1.82.03 3.62.55 5.3-1.28-2.4-2.53-4.8-3.7-7.26-.92-1.9-1.28-4.31-2.56-6.02.32-.12.66-.23 1.05-.33Zm-17.91 36.53h-.2c1.44-4.8 2.62-9.63 4.61-14.23-.31 1.13-.46 2.35-.6 3.33-.4 2.57-.83 5.47-.5 8.08-.75 1.35-1.63 2.6-3.31 2.82Zm-1.9-5.42c.73-2.57 2.56-4.63 4.35-6.7a34.05 34.05 0 0 0-3.48 11.9c-1.34-.9-1.19-4.12-.88-5.2Zm-1.55-14.86a18.35 18.35 0 0 1-3.68-1.89c-.48-.3-4.1-4.41-3.19-5.08 2.34 1.96 5.05 3.49 7.69 4.96 2.1 1.17 4.37 2.5 6.7 3.36-2.52-.34-5.03-.47-7.52-1.35Zm9.12 1.24c-2.39-1.65-5.26-2.77-7.81-4.11-2.45-1.3-4.79-2.82-7.2-4.17 5.92.21 11.83 3.16 15.01 8.28Zm4.79 11.53c-1.53-.07-2.11-1.6-1.35-2.8.88-1.37 2.38-.67 3.46-.05.1 1.17-.82 2.9-2.11 2.85Zm-18.2 2.24c-.64.03-.87-.66-.93-1.2-.09-.66.35-1.2.85-1.55a2 2 0 0 1 1.6-.36c.4.1.57.6.95.75-.25 1.14-1.31 2.3-2.46 2.36Zm14.74-26.16c1.47.36 1.21 2.53.87 3.59-.18.58-.53 1.2-1.03 1.57-1.01.19-2.04-.98-2.55-2.08-.92-1.98.72-3.56 2.71-3.08Zm21.17 1.66c-.52-1.38-.06-2.85 1.35-3.36 1.35-.49 2.25.63 2.27 1.93 0 .63-.19 1.22-.52 1.73-.34.52-.97.67-1.44 1-.04.02-.06.06-.09.1-.7-.06-1.21-.48-1.57-1.4Zm28.05 4.47c.88-.5 1.66.28 1.94 1.08.38 1.14-.24 1.73-.65 2.7l-.01.05c-2 .07-3.58-2.55-1.28-3.83Zm27.68 10.16a43.32 43.32 0 0 1-8.25 1.34c-.17-.07-.34-.16-.5-.24.07-2.74-.81-5.53-1.1-8.23-.22-2.09-.4-4.38-1.36-6.27-1.25-2.44-3.8-5.88-6.85-4.3-3.67 1.9-1.1 8.36.24 10.8 1.6 2.9 3.9 6.65 7.01 8.36-2.75.05-5.52-.1-8.3-.41-3.02-1.04-4.65-3.88-6.29-6.47 1.74-.43 1.82-3.1 1.22-4.51-.8-1.87-2.59-2.66-4.42-1.85-2.08.91-2.68 3.48-1.46 5.34.52.8 1.39 1.42 2.34 1.53.58.07 1.08-.04 1.53-.26.24 1.61 1.34 3 2.38 4.18a9.8 9.8 0 0 0 1.88 1.68 161.4 161.4 0 0 1-12.88-2.5c-.02-1.95-.48-3.83-.36-5.8.12-2.03.32-4.04.27-6.08-.08-2.79-1.04-6.16-3.87-7.23-6.07-2.31-6.06 6.03-4.84 9.82-.07 2.03 2.26 4.62 3.3 6a11.13 11.13 0 0 0 2.8 2.66c-3.87-.9-7.71-1.8-11.48-2.52-.94-.87-1.8-1.84-2.53-2.9-.95-1.35-1.25-2.8-1.72-4.28 3.23-.14 3.64-9-1.76-7.18-2.25.76-2.9 3.37-1.95 5.42.47 1.02 1.75 2.05 2.82 1.93 0 1.44.84 2.99 1.53 4.12.6.97 1.34 1.87 2.2 2.62a71.5 71.5 0 0 0-8.73-1.04l-.38-.24c-.62-4.32.52-10.1-2.52-13.64-1.6-1.86-5.19-4.46-7.26-1.66-2.04 2.76-.13 6.25 1.46 8.74a19.87 19.87 0 0 0 6.8 6.73 50.4 50.4 0 0 0-7.64.38c-.96-.55-1.91-1.08-2.85-1.65-1.39-.84-2.57-1.9-3.88-2.85.4-.54.69-1.18.88-1.82.72-2.36.07-5.32-2.68-5.63a3.97 3.97 0 0 0-3.73 1.71c-.74 1.18-.37 2.73.21 3.88a4.6 4.6 0 0 0 1.41 1.65c0 .06.02.13.04.18a2 2 0 0 0 2.77.98c.26-.13.5-.3.7-.5 1.33 2.03 3.64 3.26 5.9 4.22a34.37 34.37 0 0 0-7.4 2.01c-2.67-6.73-10.72-9.59-17.4-9.6-.34 0-.55.26-.58.58-.65 7.13 8.7 10.98 15.07 10.4a23.38 23.38 0 0 0-8.57 7.96 2.53 2.53 0 0 0-1.14-.65c-1.38-.35-2.99.57-3.77 1.68-.9 1.3-.75 3.1.3 4.26.97 1.1 2.6.67 3.6-.13a3.86 3.86 0 0 0 1.49-3.67.4.4 0 0 0-.06-.15v-.04a.58.58 0 0 0 .19-.12 55.83 55.83 0 0 1 6.3-5.3c-3.44 3.37-6.79 8.22-4.89 12.3 2.31 4.97 7.3 1.05 7.58-3.09 0-.15-.12-.22-.25-.2.28-1.38.33-2.82.47-4.2a39 39 0 0 1 .88-5.13c.2-.83.52-1.55.68-2.34a30.32 30.32 0 0 1 8.51-2.75 9.01 9.01 0 0 0-2.33 2.6c-.62.97-1.4 2.4-1.72 3.74a2.7 2.7 0 0 0-.34-.02c-1.1.02-2.02.76-2.6 1.67-1.3 2.01-.21 4.45 2.15 4.78 1.94.27 3.2-1.5 3.4-3.28.1-.94-.25-1.9-.9-2.27-.16-.2-.34-.36-.54-.5.38-.8.61-1.76.9-2.53.7-1.8 1.64-3.35 3.25-4.39l1.74-.19c6.11-.54 12.28.39 18.33 1.62-6.25.45-14.26 6.56-11.18 12.8 1.67 3.37 5.83 1.24 7.51-.73 3.1-3.63 3.92-8.61 8.15-11.1l2.25.5c2.08.45 4.19.93 6.32 1.41a11.88 11.88 0 0 0-3.33 4.93 3.1 3.1 0 0 0-1.19-.23c-1.97 0-3.8 1.7-3.68 3.77.13 2.27 2.25 2.99 4.09 2.18a3.14 3.14 0 0 0 1.8-1.82c.13-.43.1-.81-.03-1.15a2.05 2.05 0 0 0-.28-2.23c.43-.64.76-1.33 1.13-2.03.6-1.17 1.36-2.26 2.2-3.25 4.47.99 9.02 1.93 13.58 2.47l-.1.15c-2.66 1.58-5.23 3.83-6.31 6.79-.9 2.43-.48 6.36 2.45 7.16 2.36.65 4.04-3.02 4.76-4.64 1.37-3.1 1.91-5.98 1.2-9.26 2.42.21 4.83.29 7.22.2a10.05 10.05 0 0 0-1.7 3.59 8.38 8.38 0 0 0-.3 2.49c-.25.12-.48.27-.69.44-1.44 1.22-2.25 3.62-1.16 5.33a3.08 3.08 0 0 0 5.29-.25 3.98 3.98 0 0 0-.1-3.78 2.27 2.27 0 0 0-1.49-1.88l-.25-.07c.04-.64.05-1.28.13-1.88.21-1.4.71-2.78 1.35-4.04a37.4 37.4 0 0 0 10.21-2.03c.67-.24.4-1.29-.3-1.1Z" fill="#8E9892" fill-opacity=".7"></path></svg><svg viewBox="0 0 32 32" fill="none" id="leaf"><path d="M12 22c11.96 0 12.92-10.17 13-15a.98.98 0 0 0-1-1c-17 .32-17 8.55-17 16m0 0v4m0-4s0-6 8-7" stroke="#0F805D" stroke-width="2" stroke-linecap="round" stroke-linejoin="round"></path></svg><svg viewBox="0 0 296 42" fill="none" id="line-leaf"><path d="M129.41 21.16a.3.3 0 0 0-.06-.17h.15l-.09.17Zm-12.45 17.51c.8-6.32 5.11-14.25 12.23-17.21l.09-.06c-1.75 3.32-2.67 6.86-4.64 10.13-1.72 2.86-4.62 5.12-7.68 7.14Zm-23.42-2.25c-.62 1.03-4.13 5.53-3.82 2.89.26-2.19.98-4.32 1.78-6.41 1.67-4.32 4.79-7.95 8.93-11-1.06 1.26-1.52 2.92-2 4.3a58.01 58.01 0 0 1-4.9 10.22Zm-9.26-29.42c-2.56-2.97 2.06-1.37 4.2-.83 3.55.89 6.93 2.39 10 4 4.71 2.48 9.26 5.16 12.23 8.94-10.24-1.63-20.36-5.06-26.43-12.11Zm30.86.88a31.93 31.93 0 0 1-3.2-2.54c.22.2-3.16-3.98-3-3.93a54.74 54.74 0 0 1 17.76 8.39c3.81 2.75 6.21 6.51 9.84 9.37-5.17-1.8-9.49-4.37-14.12-6.94-2.5-1.39-4.95-2.79-7.28-4.35Zm-55.32 29.94c-2.02 1.9-2.53 1.45-2.52-.87.01-2.46 1.44-4.8 3-6.87 2.6-3.45 6.72-6.11 10.4-8.82h.12c-3.39 5.73-5.73 11.6-11 16.56Zm-20.14-11.77c-2.23 3.12-4.17 6.45-8.65 7.72.94-5.77 6.38-10.25 13.14-12.33-1.98 1.13-3.4 3.08-4.5 4.61Zm-36.67-5.86c7.46-2.04 14.59-1.83 22.08-.4l-4.22.04c-.51.01-.71.38-.61.68-5.93.7-12.13 2.28-17.25-.32Zm22.87-13.96c9.82.09 17.07 6.75 23.46 12.21-4.29-1.58-9.02-2.37-13.08-4.5-3.95-2.07-6.98-5.1-10.38-7.71Zm25.23-2.03c11.76 1.82 21.3 6.67 27.26 14.74-10.52-2.04-22.43-6.77-27.26-14.74Zm93.82 15.86-6.3-.13c.07-.14.06-.32-.11-.47-4.56-4.08-8.12-8.61-13.44-12.15-5.05-3.36-11.17-5.55-17.37-7.29-.43-.12-.96.27-.78.61 2.51 4.8 7 8.04 12.25 11.1 4.6 2.67 9.9 6.65 15.66 8.11-7.46-.15-14.93-.27-22.4-.33-1.66-3.67-6.17-6.25-10.05-8.47a54.55 54.55 0 0 0-20.17-7.03c-.47-.06-.87.21-.76.59 1.38 4.61 6.88 8 11.64 10.56a46.88 46.88 0 0 0 10.73 4.29c-8-.04-15.98-.05-23.97-.03-3.31-9.54-18.39-14.92-29.74-16.46-.46-.06-1.06.24-.85.66 3.85 7.58 14.94 13.77 25.44 15.82-7.6.03-15.22.07-22.83.13a.46.46 0 0 0-.17-.14c-.3-.15-.62-.27-.93-.4-6.86-6.47-15.02-14.66-26.85-14-.67.04-1.1.67-.57 1.08 3.6 2.72 6.8 5.9 10.84 8.24 4.34 2.52 9.46 4.08 14.65 5.25l-19.9.16c-8.77-3.63-19.44-3.55-28.46-.47-.57.2-.65.91-.2 1.22 3.31 2.2 7.44 2.46 11.65 2.38 5.06-.1 11.64-.3 16.44-1.63.19-.05.29-.18.3-.32l13.28.12c-7.03 2.02-11.93 7.5-12.27 13.4-.02.31.4.53.78.45 3.77-.76 6.15-2.75 8.14-5.27 1.17-1.49 2.13-3.07 3.3-4.56 1.39-1.77 3.07-2.69 5.22-3.79.1-.05.17-.12.2-.19l21.57.15c-7.82 4.65-15.13 11.2-12.93 19.34.1.33.66.61 1.08.48 3.91-1.25 6.23-4.6 8.26-7.3 2.98-4 4.88-8.18 6.92-12.48v-.03c9 .04 18 .06 27 .03-7.56 4.18-11.95 13.2-11.31 20.11.02.3.33.63.76.6 3.73-.33 6.07-4.88 7.26-7.13 2.25-4.26 3.46-9.9 6.94-13.6 8.37-.04 16.74-.12 25.11-.26-8.36 2.34-13.13 13.04-12.91 19.2.02.63.92.86 1.5.48 8.1-5.36 11.45-11.84 14.15-19.73 4.74-.09 9.47-.19 14.2-.31.48-.02.48-.57 0-.59Zm21.57.93h.15a.3.3 0 0 0-.06.17l-.1-.17Zm4.86 10.54c-1.97-3.27-2.9-6.81-4.64-10.13l.1.06c7.1 2.96 11.42 10.9 12.22 17.21-3.06-2.02-5.96-4.28-7.68-7.14Zm26.21-5.33c-.48-1.38-.94-3.04-2-4.3 4.14 3.05 7.26 6.68 8.93 11 .8 2.09 1.53 4.23 1.78 6.4.3 2.65-3.2-1.84-3.82-2.88a58.12 58.12 0 0 1-4.89-10.22Zm-12.28-7.1c2.97-3.77 7.52-6.45 12.23-8.92a45.5 45.5 0 0 1 10-4.01c2.14-.54 6.76-2.14 4.2.83-6.07 7.05-16.19 10.48-26.43 12.1Zm-11.7-6.87c-4.64 2.57-8.96 5.13-14.13 6.94 3.63-2.86 6.03-6.62 9.84-9.37a54.74 54.74 0 0 1 17.76-8.4c.16-.04-3.22 4.14-3 3.94a31.47 31.47 0 0 1-3.2 2.54 101.5 101.5 0 0 1-7.28 4.35Zm51.59 9.03h.11c3.7 2.7 7.81 5.37 10.41 8.82 1.56 2.06 2.99 4.4 3 6.87 0 2.32-.5 2.77-2.52.87-5.27-4.97-7.61-10.83-11-16.56Zm26.65.18c6.76 2.08 12.2 6.56 13.14 12.33-4.48-1.27-6.43-4.6-8.65-7.72-1.09-1.53-2.5-3.48-4.5-4.61Zm23.91-.93c.1-.3-.1-.67-.61-.68l-4.22-.03c7.5-1.44 14.62-1.65 22.08.39-5.12 2.6-11.32 1.02-17.25.32Zm-16-6.57c-4.06 2.13-8.8 2.92-13.08 4.5 6.39-5.46 13.64-12.12 23.47-12.21-3.41 2.6-6.44 5.64-10.4 7.71Zm-42.11 5c5.96-8.07 15.5-12.92 27.26-14.74-4.83 7.97-16.74 12.7-27.26 14.74Zm-66.56 1.7c4.73.13 9.46.23 14.2.32 2.7 7.9 6.05 14.37 14.16 19.73.57.38 1.47.15 1.49-.48.22-6.16-4.55-16.86-12.91-19.2 8.37.14 16.74.22 25.11.26 3.48 3.7 4.7 9.34 6.94 13.6 1.19 2.25 3.53 6.8 7.26 7.13a.7.7 0 0 0 .76-.6c.64-6.9-3.75-15.93-11.3-20.1 9 .02 18 0 26.99-.04v.03c2.04 4.3 3.94 8.49 6.92 12.47 2.03 2.7 4.34 6.06 8.26 7.3.43.14.99-.14 1.08-.47 2.2-8.13-5.11-14.7-12.93-19.34a7594 7594 0 0 0 21.56-.15c.04.07.1.14.2.2 2.16 1.1 3.84 2.01 5.23 3.78 1.17 1.49 2.13 3.07 3.3 4.56 1.99 2.52 4.37 4.5 8.14 5.27.37.08.8-.14.78-.46-.34-5.9-5.24-11.37-12.27-13.4l13.29-.1c0 .13.1.26.3.31 4.79 1.33 11.37 1.54 16.43 1.63 4.2.08 8.34-.17 11.65-2.38.45-.3.37-1.03-.2-1.22-9.02-3.08-19.68-3.16-28.47.47l-19.89-.16c5.2-1.17 10.31-2.73 14.65-5.25 4.03-2.34 7.25-5.52 10.84-8.24.53-.4.1-1.04-.57-1.07-11.83-.67-19.99 7.52-26.85 13.98-.31.14-.63.26-.93.4a.45.45 0 0 0-.17.15c-7.61-.06-15.22-.1-22.83-.13 10.5-2.05 21.59-8.24 25.44-15.82.21-.42-.4-.72-.85-.66-11.36 1.54-26.43 6.92-29.74 16.46-7.99-.02-15.98-.01-23.97.03a46.86 46.86 0 0 0 10.73-4.29c4.76-2.56 10.25-5.95 11.64-10.56.11-.38-.3-.65-.75-.59a54.55 54.55 0 0 0-20.18 7.03c-3.88 2.22-8.4 4.8-10.06 8.47a1945 1945 0 0 0-22.39.33c5.76-1.46 11.07-5.44 15.66-8.12 5.24-3.05 9.74-6.3 12.25-11.09.18-.34-.35-.73-.78-.6-6.2 1.73-12.32 3.92-17.37 7.28-5.32 3.54-8.88 8.07-13.44 12.15-.17.15-.18.33-.1.47l-6.3.13c-.5.02-.5.57 0 .59Z" fill="#8E9892" fill-opacity=".7"></path></svg><svg viewBox="0 0 40 40" fill="none" id="telegram"><circle cx="20" cy="20" r="19.5" stroke="#0F805D"></circle><path d="M28.95 9.77a1.55 1.55 0 0 0-1.58-.25l-17.91 7.23a1.54 1.54 0 0 0 .07 2.89l3.87 1.34 2.1 6.93.02.03a.49.49 0 0 0 .32.3l.02.01h.01c.08.02.16.01.24-.01h.02a.5.5 0 0 0 .2-.13l.01-.01 3.02-3.33 4.4 3.4c.26.22.59.33.93.33.73 0 1.37-.51 1.52-1.23l3.26-16.02a1.53 1.53 0 0 0-.52-1.49Zm-12.36 12.53-.7 3.43-1.48-4.88 7.31-3.8-5 5a.5.5 0 0 0-.13.25Zm8.64 4.77a.54.54 0 0 1-.35.4.53.53 0 0 1-.51-.08l-4.77-3.7a.5.5 0 0 0-.67.07l-2.1 2.31.7-3.43 7.2-7.19a.5.5 0 0 0-.59-.8l-10.36 5.4-3.92-1.36a.53.53 0 0 1-.36-.49.53.53 0 0 1 .33-.52l17.92-7.23a.54.54 0 0 1 .56.09.52.52 0 0 1 .18.51l-3.26 16.02Z" fill="#0F805D"></path></svg><svg viewBox="0 0 40 40" fill="none" id="vkontakte"><circle cx="20" cy="20" r="19.5" stroke="#0F805D"></circle><path d="M9 15.93c0-.7.44-1.09 1.32-1.14l3.38.02c.22 0 .38.1.45.3.35 1.04.74 1.94 1.17 2.69.43.75 1 1.62 1.69 2.6a.3.3 0 0 0 .3.19c.1 0 .18-.05.24-.15l.07-.23.03-3.58c0-.25-.07-.41-.2-.5a1.85 1.85 0 0 0-.71-.18c-.27-.04-.41-.2-.41-.46 0-.05 0-.1.02-.12.32-.9 1.23-1.35 2.72-1.35l1.28-.02c.57 0 1.05.13 1.42.4.38.26.57.67.57 1.24v4.7c.1.07.2.1.3.1.22 0 .42-.12.59-.37 1.66-2.13 2.56-3.55 2.7-4.27l.04-.1c.1-.2.28-.39.52-.54.25-.15.46-.26.64-.31a.49.49 0 0 1 .2-.04h3.52l.23.02c.3 0 .54.13.7.4.06.07.1.16.13.26a1.92 1.92 0 0 1 .05.46v.14a4.8 4.8 0 0 1-.8 1.81c-.43.65-.98 1.34-1.65 2.09a22.9 22.9 0 0 0-1.25 1.47c-.13.16-.2.31-.2.45 0 .11.06.24.18.37l3.31 3.81c.19.23.28.47.28.73 0 .32-.14.58-.41.79-.27.2-.6.32-.98.35l-.38.02h-3.45l-.1.01a.76.76 0 0 1-.08.01 1.3 1.3 0 0 1-.93-.4c-.11-.1-.82-.92-2.14-2.44a1.2 1.2 0 0 0-.31-.27 30.76 30.76 0 0 0-.46 1.85l-.07.35a1.2 1.2 0 0 1-.95.87l-.32.02h-2.22c-1.26 0-2.5-.53-3.76-1.57a16 16 0 0 1-3.37-4.07c-1-1.67-1.92-3.6-2.79-5.81a1.53 1.53 0 0 1-.11-.6Zm13.64 5.36c-.32 0-.6-.08-.87-.24a.73.73 0 0 1-.38-.65v-4.76c0-.28-.08-.48-.23-.6-.15-.11-.41-.17-.8-.17l-1.29.04c-.65 0-1.14.1-1.47.31.67.3 1 .76 1 1.41v3.65c-.03.34-.18.63-.46.85-.27.23-.57.35-.9.35-.46 0-.8-.2-1.05-.6a21.34 21.34 0 0 1-2.63-4.64l-.2-.54-3.02-.02c-.2 0-.3 0-.33.03-.02.02-.03.08-.03.17 0 .13.01.26.04.4l.48 1.16c1.27 3 2.65 5.35 4.14 7.08 1.49 1.73 2.95 2.59 4.39 2.59h2.27c.09 0 .16-.02.2-.07a.62.62 0 0 0 .12-.28l.04-.21.43-1.82c.12-.25.23-.42.32-.5a.85.85 0 0 1 .59-.23c.36 0 .73.2 1.11.6l1.93 2.24c.12.18.25.27.39.27h3.74c.45 0 .68-.1.68-.31a.37.37 0 0 0-.07-.2l-3.29-3.76a1.4 1.4 0 0 1-.38-.93c0-.33.12-.65.36-.95.2-.28.58-.74 1.15-1.38.56-.64 1.06-1.24 1.48-1.8a5 5 0 0 0 .84-1.52l.07-.27a.3.3 0 0 1-.02-.14.33.33 0 0 0-.03-.15h-3.56c-.22.08-.4.2-.54.37l-.14.4c-.38.95-1.37 2.42-2.97 4.4-.32.28-.69.42-1.11.42Z" fill="#0F805D"></path></svg><svg viewBox="0 0 40 40" fill="none" id="youtube"><circle cx="20" cy="20" r="19.5" stroke="#0F805D"></circle><path d="m23.2 19.7-4.5-3a.38.38 0 0 0-.57.3v6a.37.37 0 0 0 .2.33c.05.03.1.04.17.05.07 0 .15-.03.2-.07l4.5-3a.37.37 0 0 0 0-.62Zm-4.32 2.6v-4.6l3.45 2.3-3.45 2.3Zm10.73-7.66a1.91 1.91 0 0 0-1.13-1.28c-3.17-1.22-8.26-1.2-8.48-1.2-.22 0-5.3-.02-8.47 1.2a1.91 1.91 0 0 0-1.14 1.28c-.23.9-.52 2.58-.52 5.36 0 2.78.29 4.45.52 5.36a1.91 1.91 0 0 0 1.13 1.28c3.17 1.22 8.26 1.2 8.48 1.2h.07c.64 0 5.4-.04 8.4-1.2a1.91 1.91 0 0 0 1.14-1.28c.23-.9.52-2.58.52-5.36 0-2.78-.29-4.45-.52-5.36Zm-.73 10.54a1.12 1.12 0 0 1-.68.75c-3.03 1.18-8.14 1.16-8.2 1.16-.06 0-5.17.02-8.2-1.16a1.13 1.13 0 0 1-.68-.75c-.22-.88-.5-2.48-.5-5.18 0-2.7.28-4.3.5-5.18a1.12 1.12 0 0 1 .68-.75c3.03-1.18 8.14-1.16 8.2-1.16.06 0 5.17-.02 8.2 1.16a1.12 1.12 0 0 1 .68.75c.22.88.5 2.48.5 5.18 0 2.7-.28 4.3-.5 5.18Z" fill="#0F805D"></path></svg></svg>