<svg viewBox="0 0 153 32" fill="none" xmlns="http://www.w3.org/2000/svg"><path d="M10.38 10.14v11.36h-1.1v-5.31h-6.74v5.31h-1.12v-11.36h1.12v5.06h6.74v-5.06h1.1Zm10.92 1h-4.05v10.36h-1.12v-10.37h-4.05v-.99h9.22v1Zm11.77 10.36v-9.25l-4.12 7.19h-.7l-4.13-7.19v9.25h-1.12v-11.36h1.15l4.44 7.78 4.46-7.78h1.14v11.36h-1.12Zm3.96 0v-11.36h1.12v10.37h6.56v.99h-7.68Zm15.96-11.36h.94l4.72 11.36h-1.18l-1.47-3.55h-5.1l-1.46 3.55h-1.2l4.75-11.36Zm2.75 6.93-2.29-5.62-2.32 5.62h4.61Zm7.7 4.59c-.6 0-1.17-.11-1.68-.34a4.36 4.36 0 0 1-2.51-4.01c0-.8.17-1.51.53-2.16a4.04 4.04 0 0 1 3.64-2.13c.78 0 1.47.18 2.07.54.6.36 1.04.84 1.33 1.44l-1.06.34a2.47 2.47 0 0 0-1-1 2.69 2.69 0 0 0-1.38-.36 2.8 2.8 0 0 0-1.52.43 3.2 3.2 0 0 0-1.1 1.19c-.27.5-.4 1.07-.4 1.7a3.54 3.54 0 0 0 1.51 2.95 2.86 2.86 0 0 0 2.56.26c.34-.13.64-.3.88-.51.26-.23.43-.47.52-.72l1.07.32c-.15.4-.4.75-.76 1.07a3.86 3.86 0 0 1-2.7.99Zm4.5-2.56c0-.52.14-.97.44-1.34.3-.39.71-.68 1.23-.88a4.93 4.93 0 0 1 1.84-.32 8.03 8.03 0 0 1 2.44.38v-.7c0-.7-.21-1.27-.63-1.68a2.31 2.31 0 0 0-1.73-.63c-.44 0-.89.09-1.32.26-.43.16-.88.4-1.35.72l-.41-.77a6.77 6.77 0 0 1 1.6-.83 4.6 4.6 0 0 1 1.6-.29c1.02 0 1.83.3 2.43.88.6.59.9 1.4.9 2.43v3.86c0 .15.03.26.09.33s.17.1.3.12v.86l-.3.03a.56.56 0 0 1-.2 0 .8.8 0 0 1-.6-.25.85.85 0 0 1-.22-.52l-.02-.6c-.37.48-.86.85-1.46 1.12-.6.25-1.2.38-1.82.38-.53 0-1.02-.11-1.46-.34a2.73 2.73 0 0 1-1-.92c-.24-.4-.36-.83-.36-1.3Zm5.58.64c.12-.15.2-.3.27-.43a.9.9 0 0 0 .1-.37v-1.22a6.62 6.62 0 0 0-2.3-.43c-.79 0-1.42.16-1.9.47-.48.3-.72.73-.72 1.26a1.73 1.73 0 0 0 .95 1.55c.3.17.67.26 1.09.26.52 0 1-.1 1.45-.3.46-.2.81-.47 1.06-.79Zm3.25-2.38c0-.8.16-1.51.48-2.16a4.1 4.1 0 0 1 1.36-1.59 3.4 3.4 0 0 1 1.96-.59c.7 0 1.32.19 1.86.56.55.36.99.8 1.3 1.33v-5.09h1.08v10.37c0 .15.03.26.1.33.06.07.16.1.29.12v.86c-.22.03-.38.04-.5.03a.88.88 0 0 1-.6-.27.78.78 0 0 1-.25-.56v-.82c-.33.55-.78.98-1.34 1.3a3.66 3.66 0 0 1-4.62-.83c-.36-.4-.63-.87-.84-1.38a4.65 4.65 0 0 1-.28-1.61Zm6.95 1.28v-2.58a3.48 3.48 0 0 0-2.88-2.08 2.84 2.84 0 0 0-2.15 1.04 3.83 3.83 0 0 0-.58 3.62c.16.4.38.76.67 1.08a3.08 3.08 0 0 0 2.2.98c.29 0 .57-.05.87-.16a3.14 3.14 0 0 0 1.54-1.1c.18-.26.3-.53.33-.8Zm7.16 3.02a4.1 4.1 0 0 1-3-1.28 4.6 4.6 0 0 1-.87-1.4 4.6 4.6 0 0 1 .22-3.82 4.16 4.16 0 0 1 5.78-1.55 4.31 4.31 0 0 1 1.98 3.68v.26c0 .07 0 .13-.02.17h-7.13a3.41 3.41 0 0 0 1.6 2.7 3.02 3.02 0 0 0 3.02-.02c.5-.27.83-.63 1.03-1.08l.94.26c-.17.4-.43.75-.78 1.07-.36.32-.77.57-1.25.75-.47.17-.98.26-1.52.26Zm-3.07-4.72h6.16a3.4 3.4 0 0 0-.5-1.6 2.96 2.96 0 0 0-1.1-1.07c-.45-.27-.95-.4-1.5-.4a3.08 3.08 0 0 0-2.6 1.49 3.5 3.5 0 0 0-.46 1.58Zm21.26 4.56h-1.09v-4.66a3.9 3.9 0 0 0-.46-2.14 1.55 1.55 0 0 0-1.38-.69c-.63 0-1.2.23-1.7.67a3.65 3.65 0 0 0-1.03 1.73v5.09h-1.1v-4.66c0-.98-.14-1.7-.44-2.14-.3-.46-.76-.69-1.38-.69a2.5 2.5 0 0 0-1.68.66 3.5 3.5 0 0 0-1.05 1.73v5.1h-1.1v-8.34h1v1.9c.35-.66.8-1.16 1.34-1.51a3.36 3.36 0 0 1 1.84-.53c.7 0 1.26.2 1.69.6.42.39.68.9.78 1.54.38-.7.84-1.23 1.38-1.6a3.24 3.24 0 0 1 3.02-.28c.33.17.6.41.78.73.2.31.35.69.44 1.14.1.44.14.93.14 1.47v4.88Zm2.61 2.56a6.03 6.03 0 0 0 .74 0c.12-.02.25-.1.36-.22.12-.13.26-.38.42-.74l.67-1.6-3.63-8.34h1.15l3.06 7.22 2.81-7.22h1.1l-4.33 10.76a1.8 1.8 0 0 1-.9.97c-.2.1-.47.17-.8.18h-.3l-.35-.03v-.98Zm28.47-24.06h-.1l-13.05 1.31v23.18l13.05 7.51 12.95-7.5v-23.19l-12.85-1.31Zm11.01 11.35-11.11-6.38v-.09h-.1l-.1-.1v.1l-11.01 6.47v-8.44l11.11-1.13 11.21 1.13v8.44Zm-11.2-4.97 11.1 6.29-4.34 2.44-6.87-3.94v1.31l5.7 3.29-.86.46-4.84-2.81v1.31l3.68 2.16-.78.47-2.9-1.69v1.32l1.84 1.03-1.74 1.03-11.02-6.29 11.02-6.38Zm-11.12 7.79 11.01 6.38v.94l-7.63-4.41v1.31l7.73 4.5v1.04l-7.73-4.41v1.31l7.73 4.5 7.83-4.6v-4.87l3.29-1.88v9.39l-11.12 6.47-11.11-6.38v-9.29Z" fill="#000"/></svg>